<mxfile host="app.diagrams.net" modified="2022-03-03T11:35:35.300Z" agent="5.0 (X11)" etag="LunFc4nmevtEXrIQnU-a" version="16.6.2" type="github">
  <diagram id="8lvslNF2b0BmcK4D5W4d" name="Page-1">
    <mxGraphModel dx="2513" dy="1517" grid="1" gridSize="10" guides="1" tooltips="1" connect="1" arrows="1" fold="1" page="1" pageScale="1" pageWidth="850" pageHeight="1100" math="0" shadow="0">
      <root>
        <mxCell id="0" />
        <mxCell id="1" parent="0" />
        <mxCell id="HR6rN7ZnXw0lVorr0S0M-1" value="re" style="html=1;overflow=block;blockSpacing=1;swimlane;childLayout=stackLayout;horizontal=1;horizontalStack=0;resizeParent=1;resizeParentMax=0;resizeLast=0;collapsible=0;fontStyle=0;marginBottom=0;swimlaneFillColor=#ffffff;startSize=25;whiteSpace=wrap;fontSize=16.7;fontColor=#333333;align=left;spacing=0;strokeColor=#5e5e5e;strokeOpacity=100;rounded=1;absoluteArcSize=1;arcSize=9;strokeWidth=2.3;" vertex="1" parent="1">
          <mxGeometry x="750" y="420" width="330" height="187.25" as="geometry" />
        </mxCell>
        <mxCell id="HR6rN7ZnXw0lVorr0S0M-2" value="- head:Node* = nullptr (default)" style="part=1;html=1;resizeHeight=0;strokeColor=none;fillColor=none;align=left;verticalAlign=middle;spacingLeft=4;spacingRight=4;overflow=hidden;rotatable=0;points=[[0,0.5],[1,0.5]];portConstraint=eastwest;swimlaneFillColor=#ffffff;strokeOpacity=100;whiteSpace=wrap;fontSize=16.7;fontColor=#333333;" vertex="1" parent="HR6rN7ZnXw0lVorr0S0M-1">
          <mxGeometry y="25" width="330" height="72" as="geometry" />
        </mxCell>
        <mxCell id="HR6rN7ZnXw0lVorr0S0M-3" value="" style="line;strokeWidth=1;fillColor=none;align=left;verticalAlign=middle;spacingTop=-1;spacingLeft=3;spacingRight=3;rotatable=0;labelPosition=right;points=[];portConstraint=eastwest;" vertex="1" parent="HR6rN7ZnXw0lVorr0S0M-1">
          <mxGeometry y="97" width="330" height="8" as="geometry" />
        </mxCell>
        <mxCell id="HR6rN7ZnXw0lVorr0S0M-4" value="+ LinkedList() (constructor)&#xa;+ ~LinkedList() (destructor)&#xa;" style="part=1;html=1;resizeHeight=0;strokeColor=none;fillColor=none;align=left;verticalAlign=middle;spacingLeft=4;spacingRight=4;overflow=hidden;rotatable=0;points=[[0,0.5],[1,0.5]];portConstraint=eastwest;swimlaneFillColor=#ffffff;strokeOpacity=100;whiteSpace=wrap;fontSize=16.7;fontColor=#333333;" vertex="1" parent="HR6rN7ZnXw0lVorr0S0M-1">
          <mxGeometry y="105" width="330" height="82.25" as="geometry" />
        </mxCell>
        <mxCell id="HR6rN7ZnXw0lVorr0S0M-5" value="Node.cpp" style="html=1;overflow=block;blockSpacing=1;swimlane;childLayout=stackLayout;horizontal=1;horizontalStack=0;resizeParent=1;resizeParentMax=0;resizeLast=0;collapsible=0;fontStyle=0;marginBottom=0;swimlaneFillColor=#ffffff;startSize=25;whiteSpace=wrap;fontSize=16.7;fontColor=#333333;align=left;spacing=0;strokeColor=#5e5e5e;strokeOpacity=100;rounded=1;absoluteArcSize=1;arcSize=9;strokeWidth=2.3;" vertex="1" parent="1">
          <mxGeometry x="495" y="705" width="390" height="207.25" as="geometry" />
        </mxCell>
        <mxCell id="HR6rN7ZnXw0lVorr0S0M-6" value="+ tile:Tile*&#xa;+ next: Node*" style="part=1;html=1;resizeHeight=0;strokeColor=none;fillColor=none;align=left;verticalAlign=middle;spacingLeft=4;spacingRight=4;overflow=hidden;rotatable=0;points=[[0,0.5],[1,0.5]];portConstraint=eastwest;swimlaneFillColor=#ffffff;strokeOpacity=100;whiteSpace=wrap;fontSize=16.7;fontColor=#333333;" vertex="1" parent="HR6rN7ZnXw0lVorr0S0M-5">
          <mxGeometry y="25" width="390" height="82" as="geometry" />
        </mxCell>
        <mxCell id="HR6rN7ZnXw0lVorr0S0M-7" value="" style="line;strokeWidth=1;fillColor=none;align=left;verticalAlign=middle;spacingTop=-1;spacingLeft=3;spacingRight=3;rotatable=0;labelPosition=right;points=[];portConstraint=eastwest;" vertex="1" parent="HR6rN7ZnXw0lVorr0S0M-5">
          <mxGeometry y="107" width="390" height="8" as="geometry" />
        </mxCell>
        <mxCell id="HR6rN7ZnXw0lVorr0S0M-8" value="+ Node(Tile tile, Node* node) (constructor)&#xa;+ Node(Node&amp;  other) (create copy) &#xa;" style="part=1;html=1;resizeHeight=0;strokeColor=none;fillColor=none;align=left;verticalAlign=middle;spacingLeft=4;spacingRight=4;overflow=hidden;rotatable=0;points=[[0,0.5],[1,0.5]];portConstraint=eastwest;swimlaneFillColor=#ffffff;strokeOpacity=100;whiteSpace=wrap;fontSize=16.7;fontColor=#333333;" vertex="1" parent="HR6rN7ZnXw0lVorr0S0M-5">
          <mxGeometry y="115" width="390" height="92.25" as="geometry" />
        </mxCell>
        <mxCell id="HR6rN7ZnXw0lVorr0S0M-9" value="Tile.cpp" style="html=1;overflow=block;blockSpacing=1;swimlane;childLayout=stackLayout;horizontal=1;horizontalStack=0;resizeParent=1;resizeParentMax=0;resizeLast=0;collapsible=0;fontStyle=0;marginBottom=0;swimlaneFillColor=#ffffff;startSize=25;whiteSpace=wrap;fontSize=16.7;fontColor=#333333;align=left;spacing=0;strokeColor=#5e5e5e;strokeOpacity=100;rounded=1;absoluteArcSize=1;arcSize=9;strokeWidth=2.3;" vertex="1" parent="1">
          <mxGeometry x="120" y="127" width="390" height="187.25" as="geometry" />
        </mxCell>
        <mxCell id="HR6rN7ZnXw0lVorr0S0M-10" value="+colour:Colour (should be private?)&#xa;+shape:Shape (should be private?)" style="part=1;html=1;resizeHeight=0;strokeColor=none;fillColor=none;align=left;verticalAlign=middle;spacingLeft=4;spacingRight=4;overflow=hidden;rotatable=0;points=[[0,0.5],[1,0.5]];portConstraint=eastwest;swimlaneFillColor=#ffffff;strokeOpacity=100;whiteSpace=wrap;fontSize=16.7;fontColor=#333333;" vertex="1" parent="HR6rN7ZnXw0lVorr0S0M-9">
          <mxGeometry y="25" width="390" height="72" as="geometry" />
        </mxCell>
        <mxCell id="HR6rN7ZnXw0lVorr0S0M-11" value="" style="line;strokeWidth=1;fillColor=none;align=left;verticalAlign=middle;spacingTop=-1;spacingLeft=3;spacingRight=3;rotatable=0;labelPosition=right;points=[];portConstraint=eastwest;" vertex="1" parent="HR6rN7ZnXw0lVorr0S0M-9">
          <mxGeometry y="97" width="390" height="8" as="geometry" />
        </mxCell>
        <mxCell id="HR6rN7ZnXw0lVorr0S0M-12" value="+ getTile() &#xa;" style="part=1;html=1;resizeHeight=0;strokeColor=none;fillColor=none;align=left;verticalAlign=middle;spacingLeft=4;spacingRight=4;overflow=hidden;rotatable=0;points=[[0,0.5],[1,0.5]];portConstraint=eastwest;swimlaneFillColor=#ffffff;strokeOpacity=100;whiteSpace=wrap;fontSize=16.7;fontColor=#333333;" vertex="1" parent="HR6rN7ZnXw0lVorr0S0M-9">
          <mxGeometry y="105" width="390" height="82.25" as="geometry" />
        </mxCell>
        <mxCell id="HR6rN7ZnXw0lVorr0S0M-13" value="Qwrikle.cpp" style="html=1;overflow=block;blockSpacing=1;swimlane;childLayout=stackLayout;horizontal=1;horizontalStack=0;resizeParent=1;resizeParentMax=0;resizeLast=0;collapsible=0;fontStyle=0;marginBottom=0;swimlaneFillColor=#ffffff;startSize=25;whiteSpace=wrap;fontSize=16.7;fontColor=#333333;align=left;spacing=0;strokeColor=#5e5e5e;strokeOpacity=100;rounded=1;absoluteArcSize=1;arcSize=9;strokeWidth=2.3;" vertex="1" parent="1">
          <mxGeometry x="-1290" y="-300" width="330" height="148.25" as="geometry" />
        </mxCell>
        <mxCell id="HR6rN7ZnXw0lVorr0S0M-14" value="- head:Node* = nullptr (default)" style="part=1;html=1;resizeHeight=0;strokeColor=none;fillColor=none;align=left;verticalAlign=middle;spacingLeft=4;spacingRight=4;overflow=hidden;rotatable=0;points=[[0,0.5],[1,0.5]];portConstraint=eastwest;swimlaneFillColor=#ffffff;strokeOpacity=100;whiteSpace=wrap;fontSize=16.7;fontColor=#333333;" vertex="1" parent="HR6rN7ZnXw0lVorr0S0M-13">
          <mxGeometry y="25" width="330" height="52" as="geometry" />
        </mxCell>
        <mxCell id="HR6rN7ZnXw0lVorr0S0M-15" value="" style="line;strokeWidth=1;fillColor=none;align=left;verticalAlign=middle;spacingTop=-1;spacingLeft=3;spacingRight=3;rotatable=0;labelPosition=right;points=[];portConstraint=eastwest;" vertex="1" parent="HR6rN7ZnXw0lVorr0S0M-13">
          <mxGeometry y="77" width="330" height="8" as="geometry" />
        </mxCell>
        <mxCell id="HR6rN7ZnXw0lVorr0S0M-16" value="+main()" style="part=1;html=1;resizeHeight=0;strokeColor=none;fillColor=none;align=left;verticalAlign=middle;spacingLeft=4;spacingRight=4;overflow=hidden;rotatable=0;points=[[0,0.5],[1,0.5]];portConstraint=eastwest;swimlaneFillColor=#ffffff;strokeOpacity=100;whiteSpace=wrap;fontSize=16.7;fontColor=#333333;" vertex="1" parent="HR6rN7ZnXw0lVorr0S0M-13">
          <mxGeometry y="85" width="330" height="63.25" as="geometry" />
        </mxCell>
        <mxCell id="HR6rN7ZnXw0lVorr0S0M-17" value="Player.cpp" style="html=1;overflow=block;blockSpacing=1;swimlane;childLayout=stackLayout;horizontal=1;horizontalStack=0;resizeParent=1;resizeParentMax=0;resizeLast=0;collapsible=0;fontStyle=0;marginBottom=0;swimlaneFillColor=#ffffff;startSize=25;whiteSpace=wrap;fontSize=16.7;fontColor=#333333;align=left;spacing=0;strokeColor=#5e5e5e;strokeOpacity=100;rounded=1;absoluteArcSize=1;arcSize=9;strokeWidth=2.3;" vertex="1" parent="1">
          <mxGeometry x="90" y="420" width="330" height="227.25" as="geometry" />
        </mxCell>
        <mxCell id="HR6rN7ZnXw0lVorr0S0M-18" value="-name: String&#xa;-score: unsigned int&#xa;-playerHand: Hand" style="part=1;html=1;resizeHeight=0;strokeColor=none;fillColor=none;align=left;verticalAlign=middle;spacingLeft=4;spacingRight=4;overflow=hidden;rotatable=0;points=[[0,0.5],[1,0.5]];portConstraint=eastwest;swimlaneFillColor=#ffffff;strokeOpacity=100;whiteSpace=wrap;fontSize=16.7;fontColor=#333333;" vertex="1" parent="HR6rN7ZnXw0lVorr0S0M-17">
          <mxGeometry y="25" width="330" height="92" as="geometry" />
        </mxCell>
        <mxCell id="HR6rN7ZnXw0lVorr0S0M-19" value="" style="line;strokeWidth=1;fillColor=none;align=left;verticalAlign=middle;spacingTop=-1;spacingLeft=3;spacingRight=3;rotatable=0;labelPosition=right;points=[];portConstraint=eastwest;" vertex="1" parent="HR6rN7ZnXw0lVorr0S0M-17">
          <mxGeometry y="117" width="330" height="8" as="geometry" />
        </mxCell>
        <mxCell id="HR6rN7ZnXw0lVorr0S0M-20" value="+getPlayerName()&#xa;+getPlayerScore()&#xa;+getPlayerHand()" style="part=1;html=1;resizeHeight=0;strokeColor=none;fillColor=none;align=left;verticalAlign=middle;spacingLeft=4;spacingRight=4;overflow=hidden;rotatable=0;points=[[0,0.5],[1,0.5]];portConstraint=eastwest;swimlaneFillColor=#ffffff;strokeOpacity=100;whiteSpace=wrap;fontSize=16.7;fontColor=#333333;" vertex="1" parent="HR6rN7ZnXw0lVorr0S0M-17">
          <mxGeometry y="125" width="330" height="102.25" as="geometry" />
        </mxCell>
        <mxCell id="HR6rN7ZnXw0lVorr0S0M-21" value="PlayerHand.cpp" style="html=1;overflow=block;blockSpacing=1;swimlane;childLayout=stackLayout;horizontal=1;horizontalStack=0;resizeParent=1;resizeParentMax=0;resizeLast=0;collapsible=0;fontStyle=0;marginBottom=0;swimlaneFillColor=#ffffff;startSize=25;whiteSpace=wrap;fontSize=16.7;fontColor=#333333;align=left;spacing=0;strokeColor=#5e5e5e;strokeOpacity=100;rounded=1;absoluteArcSize=1;arcSize=9;strokeWidth=2.3;" vertex="1" parent="1">
          <mxGeometry x="75" y="735" width="330" height="148.25" as="geometry" />
        </mxCell>
        <mxCell id="HR6rN7ZnXw0lVorr0S0M-22" value="playerHand: LinkedList()" style="part=1;html=1;resizeHeight=0;strokeColor=none;fillColor=none;align=left;verticalAlign=middle;spacingLeft=4;spacingRight=4;overflow=hidden;rotatable=0;points=[[0,0.5],[1,0.5]];portConstraint=eastwest;swimlaneFillColor=#ffffff;strokeOpacity=100;whiteSpace=wrap;fontSize=16.7;fontColor=#333333;" vertex="1" parent="HR6rN7ZnXw0lVorr0S0M-21">
          <mxGeometry y="25" width="330" height="52" as="geometry" />
        </mxCell>
        <mxCell id="HR6rN7ZnXw0lVorr0S0M-23" value="" style="line;strokeWidth=1;fillColor=none;align=left;verticalAlign=middle;spacingTop=-1;spacingLeft=3;spacingRight=3;rotatable=0;labelPosition=right;points=[];portConstraint=eastwest;" vertex="1" parent="HR6rN7ZnXw0lVorr0S0M-21">
          <mxGeometry y="77" width="330" height="8" as="geometry" />
        </mxCell>
        <mxCell id="HR6rN7ZnXw0lVorr0S0M-24" value="" style="part=1;html=1;resizeHeight=0;strokeColor=none;fillColor=none;align=left;verticalAlign=middle;spacingLeft=4;spacingRight=4;overflow=hidden;rotatable=0;points=[[0,0.5],[1,0.5]];portConstraint=eastwest;swimlaneFillColor=#ffffff;strokeOpacity=100;whiteSpace=wrap;fontSize=13;" vertex="1" parent="HR6rN7ZnXw0lVorr0S0M-21">
          <mxGeometry y="85" width="330" height="63.25" as="geometry" />
        </mxCell>
        <UserObject label="" lucidchartObjectId="hbVVC6IAV4HV" id="HR6rN7ZnXw0lVorr0S0M-25">
          <mxCell style="html=1;jettySize=18;whiteSpace=wrap;fontSize=13;strokeColor=#5E5E5E;strokeWidth=1.5;rounded=1;arcSize=12;edgeStyle=orthogonalEdgeStyle;startArrow=none;endArrow=none;exitX=0.5;exitY=-0.009;exitPerimeter=0;entryX=0.455;entryY=1.005;entryPerimeter=0;" edge="1" parent="1" source="HR6rN7ZnXw0lVorr0S0M-21" target="HR6rN7ZnXw0lVorr0S0M-17">
            <mxGeometry width="100" height="100" relative="1" as="geometry">
              <Array as="points" />
            </mxGeometry>
          </mxCell>
        </UserObject>
        <mxCell id="HR6rN7ZnXw0lVorr0S0M-26" value="Player Has A Hand" style="text;html=1;resizable=0;labelBackgroundColor=default;align=center;verticalAlign=middle;fontStyle=1;fontColor=#333333;fontSize=13.3;" vertex="1" parent="HR6rN7ZnXw0lVorr0S0M-25">
          <mxGeometry relative="1" as="geometry" />
        </mxCell>
        <mxCell id="HR6rN7ZnXw0lVorr0S0M-27" value="&lt;div style=&quot;display: flex; justify-content: center; text-align: center; align-items: baseline; font-size: 0; line-height: 1.25;margin-top: -2px;&quot;&gt;&lt;span&gt;&lt;span style=&quot;font-size:13px;&quot;&gt;&amp;lt;&amp;lt;enumeration&amp;gt;&amp;gt;&lt;/span&gt;&lt;span style=&quot;font-size:13px;font-weight: bold;&quot;&gt;&#xa;Colour&lt;/span&gt;&lt;/span&gt;&lt;/div&gt;" style="swimlane;childLayout=stackLayout;horizontal=1;horizontalStack=0;resizeParent=1;resizeParentMax=0;resizeLast=0;collapsible=0;fontStyle=0;marginBottom=0;swimlaneFillColor=#ffffff;startSize=25;whiteSpace=wrap;overflow=block;blockSpacing=1;html=1;fontSize=13;align=left;spacing=0;strokeOpacity=100;strokeWidth=1.5;" vertex="1" parent="1">
          <mxGeometry x="795" y="-255" width="210" height="264.5847351467432" as="geometry" />
        </mxCell>
        <mxCell id="HR6rN7ZnXw0lVorr0S0M-28" value="RED&#39;R&#39;&#xa;ORANGE&#39;O&#39;&#xa;YELLOW&#39;Y&#39;&#xa;GREEN&#39;G&#39;&#xa;BLUE&#39;B&#39;&#xa;PURPLE&#39;P&#39;&#xa;" style="part=1;resizeHeight=0;strokeColor=none;fillColor=none;align=left;verticalAlign=middle;spacingLeft=4;spacingRight=4;rotatable=0;points=[[0,0.5],[1,0.5]];portConstraint=eastwest;swimlaneFillColor=#ffffff;strokeOpacity=100;whiteSpace=wrap;overflow=block;blockSpacing=1;html=1;fontSize=13;" vertex="1" parent="HR6rN7ZnXw0lVorr0S0M-27">
          <mxGeometry y="25" width="210" height="239.58473514674318" as="geometry" />
        </mxCell>
        <mxCell id="HR6rN7ZnXw0lVorr0S0M-29" value="&lt;div style=&quot;display: flex; justify-content: center; text-align: center; align-items: baseline; font-size: 0; line-height: 1.25;margin-top: -2px;&quot;&gt;&lt;span&gt;&lt;span style=&quot;font-size:13px;&quot;&gt;&amp;lt;&amp;lt;enumeration&amp;gt;&amp;gt;&lt;/span&gt;&lt;span style=&quot;font-size:13px;font-weight: bold;&quot;&gt;&#xa;Shapes&lt;/span&gt;&lt;/span&gt;&lt;/div&gt;" style="swimlane;childLayout=stackLayout;horizontal=1;horizontalStack=0;resizeParent=1;resizeParentMax=0;resizeLast=0;collapsible=0;fontStyle=0;marginBottom=0;swimlaneFillColor=#ffffff;startSize=25;whiteSpace=wrap;overflow=block;blockSpacing=1;html=1;fontSize=13;align=left;spacing=0;strokeOpacity=100;strokeWidth=1.5;" vertex="1" parent="1">
          <mxGeometry x="795" y="48" width="210" height="250.58473514674318" as="geometry" />
        </mxCell>
        <mxCell id="HR6rN7ZnXw0lVorr0S0M-30" value="CIRCLE    1&#xa;STAR_4    2&#xa;DIAMOND   3&#xa;SQUARE    4&#xa;STAR_6    5&#xa;CLOVER    6" style="part=1;resizeHeight=0;strokeColor=none;fillColor=none;align=left;verticalAlign=middle;spacingLeft=4;spacingRight=4;rotatable=0;points=[[0,0.5],[1,0.5]];portConstraint=eastwest;swimlaneFillColor=#ffffff;strokeOpacity=100;whiteSpace=wrap;overflow=block;blockSpacing=1;html=1;fontSize=13;" vertex="1" parent="HR6rN7ZnXw0lVorr0S0M-29">
          <mxGeometry y="25" width="210" height="225.58473514674318" as="geometry" />
        </mxCell>
        <UserObject label="" lucidchartObjectId="1jVViT0POXI." id="HR6rN7ZnXw0lVorr0S0M-31">
          <mxCell style="html=1;jettySize=18;whiteSpace=wrap;fontSize=13;strokeColor=#5E5E5E;strokeWidth=1.5;rounded=1;arcSize=12;edgeStyle=orthogonalEdgeStyle;startArrow=none;endArrow=block;endFill=1;exitX=-0.004;exitY=0.5;exitPerimeter=0;entryX=1.003;entryY=0.5;entryPerimeter=0;" edge="1" parent="1" source="HR6rN7ZnXw0lVorr0S0M-27" target="HR6rN7ZnXw0lVorr0S0M-9">
            <mxGeometry width="100" height="100" relative="1" as="geometry">
              <Array as="points" />
            </mxGeometry>
          </mxCell>
        </UserObject>
        <UserObject label="" lucidchartObjectId="4jVVdsVifk36" id="HR6rN7ZnXw0lVorr0S0M-32">
          <mxCell style="html=1;jettySize=18;whiteSpace=wrap;fontSize=13;strokeColor=#5E5E5E;strokeWidth=1.5;rounded=1;arcSize=12;edgeStyle=orthogonalEdgeStyle;startArrow=none;endArrow=none;exitX=-0.004;exitY=0.5;exitPerimeter=0;entryX=1.003;entryY=0.5;entryPerimeter=0;" edge="1" parent="1" source="HR6rN7ZnXw0lVorr0S0M-29" target="HR6rN7ZnXw0lVorr0S0M-9">
            <mxGeometry width="100" height="100" relative="1" as="geometry">
              <Array as="points" />
            </mxGeometry>
          </mxCell>
        </UserObject>
        <mxCell id="HR6rN7ZnXw0lVorr0S0M-33" value="Tile has a colour &amp; Shape" style="text;html=1;resizable=0;labelBackgroundColor=default;align=center;verticalAlign=middle;fontStyle=1;fontColor=#333333;fontSize=13.3;" vertex="1" parent="HR6rN7ZnXw0lVorr0S0M-32">
          <mxGeometry x="0.5566259883831406" relative="1" as="geometry" />
        </mxCell>
        <UserObject label="" lucidchartObjectId="~lVVh4qx5urS" id="HR6rN7ZnXw0lVorr0S0M-34">
          <mxCell style="html=1;jettySize=18;whiteSpace=wrap;fontSize=13;strokeColor=#5E5E5E;strokeWidth=1.5;rounded=1;arcSize=12;edgeStyle=orthogonalEdgeStyle;startArrow=none;endArrow=none;exitX=0.5;exitY=-0.006;exitPerimeter=0;entryX=0.455;entryY=1.007;entryPerimeter=0;" edge="1" parent="1" source="HR6rN7ZnXw0lVorr0S0M-5" target="HR6rN7ZnXw0lVorr0S0M-1">
            <mxGeometry width="100" height="100" relative="1" as="geometry">
              <Array as="points" />
            </mxGeometry>
          </mxCell>
        </UserObject>
        <mxCell id="HR6rN7ZnXw0lVorr0S0M-35" value="LinkedList Has-A Node" style="text;html=1;resizable=0;labelBackgroundColor=default;align=center;verticalAlign=middle;fontStyle=1;fontColor=#333333;fontSize=13.3;" vertex="1" parent="HR6rN7ZnXw0lVorr0S0M-34">
          <mxGeometry relative="1" as="geometry" />
        </mxCell>
        <mxCell id="HR6rN7ZnXw0lVorr0S0M-36" value="NewGame.cpp" style="html=1;overflow=block;blockSpacing=1;swimlane;childLayout=stackLayout;horizontal=1;horizontalStack=0;resizeParent=1;resizeParentMax=0;resizeLast=0;collapsible=0;fontStyle=0;marginBottom=0;swimlaneFillColor=#ffffff;startSize=25;whiteSpace=wrap;fontSize=16.7;fontColor=#333333;align=left;spacing=0;strokeColor=#5e5e5e;strokeOpacity=100;rounded=1;absoluteArcSize=1;arcSize=9;strokeWidth=2.3;" vertex="1" parent="1">
          <mxGeometry x="-600" y="-390" width="330" height="266.25" as="geometry" />
        </mxCell>
        <mxCell id="HR6rN7ZnXw0lVorr0S0M-37" value="" style="part=1;html=1;resizeHeight=0;strokeColor=none;fillColor=none;align=left;verticalAlign=middle;spacingLeft=4;spacingRight=4;overflow=hidden;rotatable=0;points=[[0,0.5],[1,0.5]];portConstraint=eastwest;swimlaneFillColor=#ffffff;strokeOpacity=100;whiteSpace=wrap;fontSize=13;" vertex="1" parent="HR6rN7ZnXw0lVorr0S0M-36">
          <mxGeometry y="25" width="330" height="112" as="geometry" />
        </mxCell>
        <mxCell id="HR6rN7ZnXw0lVorr0S0M-38" value="" style="line;strokeWidth=1;fillColor=none;align=left;verticalAlign=middle;spacingTop=-1;spacingLeft=3;spacingRight=3;rotatable=0;labelPosition=right;points=[];portConstraint=eastwest;" vertex="1" parent="HR6rN7ZnXw0lVorr0S0M-36">
          <mxGeometry y="137" width="330" height="8" as="geometry" />
        </mxCell>
        <mxCell id="HR6rN7ZnXw0lVorr0S0M-39" value="+startGameMessage()&#xa;+inputPlayerNames()&#xa;--use the above to crete 2 new Player objects&#xa;+runGame()&#xa;&#xa;" style="part=1;html=1;resizeHeight=0;strokeColor=none;fillColor=none;align=left;verticalAlign=middle;spacingLeft=4;spacingRight=4;overflow=hidden;rotatable=0;points=[[0,0.5],[1,0.5]];portConstraint=eastwest;swimlaneFillColor=#ffffff;strokeOpacity=100;whiteSpace=wrap;fontSize=16.7;fontColor=#333333;" vertex="1" parent="HR6rN7ZnXw0lVorr0S0M-36">
          <mxGeometry y="145" width="330" height="121.25" as="geometry" />
        </mxCell>
        <mxCell id="HR6rN7ZnXw0lVorr0S0M-40" value="LoadGame.cpp" style="html=1;overflow=block;blockSpacing=1;swimlane;childLayout=stackLayout;horizontal=1;horizontalStack=0;resizeParent=1;resizeParentMax=0;resizeLast=0;collapsible=0;fontStyle=0;marginBottom=0;swimlaneFillColor=#ffffff;startSize=25;whiteSpace=wrap;fontSize=16.7;fontColor=#333333;align=left;spacing=0;strokeColor=#5e5e5e;strokeOpacity=100;rounded=1;absoluteArcSize=1;arcSize=9;strokeWidth=2.3;" vertex="1" parent="1">
          <mxGeometry x="-600" y="-102" width="330" height="227.25" as="geometry" />
        </mxCell>
        <mxCell id="HR6rN7ZnXw0lVorr0S0M-41" value="" style="part=1;html=1;resizeHeight=0;strokeColor=none;fillColor=none;align=left;verticalAlign=middle;spacingLeft=4;spacingRight=4;overflow=hidden;rotatable=0;points=[[0,0.5],[1,0.5]];portConstraint=eastwest;swimlaneFillColor=#ffffff;strokeOpacity=100;whiteSpace=wrap;fontSize=13;" vertex="1" parent="HR6rN7ZnXw0lVorr0S0M-40">
          <mxGeometry y="25" width="330" height="92" as="geometry" />
        </mxCell>
        <mxCell id="HR6rN7ZnXw0lVorr0S0M-42" value="" style="line;strokeWidth=1;fillColor=none;align=left;verticalAlign=middle;spacingTop=-1;spacingLeft=3;spacingRight=3;rotatable=0;labelPosition=right;points=[];portConstraint=eastwest;" vertex="1" parent="HR6rN7ZnXw0lVorr0S0M-40">
          <mxGeometry y="117" width="330" height="8" as="geometry" />
        </mxCell>
        <mxCell id="HR6rN7ZnXw0lVorr0S0M-43" value="gets input file name to be loaded&#xa;(check that file exists)&#xa;(check that format is correct)&#xa;print message &quot;game loaded)&#xa;runGame()" style="part=1;html=1;resizeHeight=0;strokeColor=none;fillColor=none;align=left;verticalAlign=middle;spacingLeft=4;spacingRight=4;overflow=hidden;rotatable=0;points=[[0,0.5],[1,0.5]];portConstraint=eastwest;swimlaneFillColor=#ffffff;strokeOpacity=100;whiteSpace=wrap;fontSize=16.7;fontColor=#333333;" vertex="1" parent="HR6rN7ZnXw0lVorr0S0M-40">
          <mxGeometry y="125" width="330" height="102.25" as="geometry" />
        </mxCell>
        <mxCell id="HR6rN7ZnXw0lVorr0S0M-44" value="credits.cpp" style="html=1;overflow=block;blockSpacing=1;swimlane;childLayout=stackLayout;horizontal=1;horizontalStack=0;resizeParent=1;resizeParentMax=0;resizeLast=0;collapsible=0;fontStyle=0;marginBottom=0;swimlaneFillColor=#ffffff;startSize=25;whiteSpace=wrap;fontSize=16.7;fontColor=#333333;align=left;spacing=0;strokeColor=#5e5e5e;strokeOpacity=100;rounded=1;absoluteArcSize=1;arcSize=9;strokeWidth=2.3;" vertex="1" parent="1">
          <mxGeometry x="-600" y="146" width="330" height="148.25" as="geometry" />
        </mxCell>
        <mxCell id="HR6rN7ZnXw0lVorr0S0M-45" value="" style="part=1;html=1;resizeHeight=0;strokeColor=none;fillColor=none;align=left;verticalAlign=middle;spacingLeft=4;spacingRight=4;overflow=hidden;rotatable=0;points=[[0,0.5],[1,0.5]];portConstraint=eastwest;swimlaneFillColor=#ffffff;strokeOpacity=100;whiteSpace=wrap;fontSize=13;" vertex="1" parent="HR6rN7ZnXw0lVorr0S0M-44">
          <mxGeometry y="25" width="330" height="52" as="geometry" />
        </mxCell>
        <mxCell id="HR6rN7ZnXw0lVorr0S0M-46" value="" style="line;strokeWidth=1;fillColor=none;align=left;verticalAlign=middle;spacingTop=-1;spacingLeft=3;spacingRight=3;rotatable=0;labelPosition=right;points=[];portConstraint=eastwest;" vertex="1" parent="HR6rN7ZnXw0lVorr0S0M-44">
          <mxGeometry y="77" width="330" height="8" as="geometry" />
        </mxCell>
        <mxCell id="HR6rN7ZnXw0lVorr0S0M-47" value="+printCredits()" style="part=1;html=1;resizeHeight=0;strokeColor=none;fillColor=none;align=left;verticalAlign=middle;spacingLeft=4;spacingRight=4;overflow=hidden;rotatable=0;points=[[0,0.5],[1,0.5]];portConstraint=eastwest;swimlaneFillColor=#ffffff;strokeOpacity=100;whiteSpace=wrap;fontSize=16.7;fontColor=#333333;" vertex="1" parent="HR6rN7ZnXw0lVorr0S0M-44">
          <mxGeometry y="85" width="330" height="63.25" as="geometry" />
        </mxCell>
        <mxCell id="HR6rN7ZnXw0lVorr0S0M-48" value="student.cpp" style="html=1;overflow=block;blockSpacing=1;swimlane;childLayout=stackLayout;horizontal=1;horizontalStack=0;resizeParent=1;resizeParentMax=0;resizeLast=0;collapsible=0;fontStyle=0;marginBottom=0;swimlaneFillColor=#ffffff;startSize=25;whiteSpace=wrap;fontSize=16.7;fontColor=#333333;align=left;spacing=0;strokeColor=#5e5e5e;strokeOpacity=100;rounded=1;absoluteArcSize=1;arcSize=9;strokeWidth=2.3;" vertex="1" parent="1">
          <mxGeometry x="-600" y="330" width="330" height="286.25" as="geometry" />
        </mxCell>
        <mxCell id="HR6rN7ZnXw0lVorr0S0M-49" value="-name: String&#xa;-StudentId: String&#xa;-Email: String" style="part=1;html=1;resizeHeight=0;strokeColor=none;fillColor=none;align=left;verticalAlign=middle;spacingLeft=4;spacingRight=4;overflow=hidden;rotatable=0;points=[[0,0.5],[1,0.5]];portConstraint=eastwest;swimlaneFillColor=#ffffff;strokeOpacity=100;whiteSpace=wrap;fontSize=16.7;fontColor=#333333;" vertex="1" parent="HR6rN7ZnXw0lVorr0S0M-48">
          <mxGeometry y="25" width="330" height="122" as="geometry" />
        </mxCell>
        <mxCell id="HR6rN7ZnXw0lVorr0S0M-50" value="" style="line;strokeWidth=1;fillColor=none;align=left;verticalAlign=middle;spacingTop=-1;spacingLeft=3;spacingRight=3;rotatable=0;labelPosition=right;points=[];portConstraint=eastwest;" vertex="1" parent="HR6rN7ZnXw0lVorr0S0M-48">
          <mxGeometry y="147" width="330" height="8" as="geometry" />
        </mxCell>
        <mxCell id="HR6rN7ZnXw0lVorr0S0M-51" value="+setName(String)&#xa;+setStudentId(String)&#xa;+setStudentEmail(String)&#xa;+getName()&#xa;+setStudentId()&#xa;+setStudentEmail()" style="part=1;html=1;resizeHeight=0;strokeColor=none;fillColor=none;align=left;verticalAlign=middle;spacingLeft=4;spacingRight=4;overflow=hidden;rotatable=0;points=[[0,0.5],[1,0.5]];portConstraint=eastwest;swimlaneFillColor=#ffffff;strokeOpacity=100;whiteSpace=wrap;fontSize=16.7;fontColor=#333333;" vertex="1" parent="HR6rN7ZnXw0lVorr0S0M-48">
          <mxGeometry y="155" width="330" height="131.25" as="geometry" />
        </mxCell>
        <UserObject label="" lucidchartObjectId="fGVVQdjCYBWf" id="HR6rN7ZnXw0lVorr0S0M-52">
          <mxCell style="html=1;jettySize=18;whiteSpace=wrap;fontSize=13;strokeColor=#5E5E5E;strokeWidth=1.5;rounded=1;arcSize=12;edgeStyle=orthogonalEdgeStyle;startArrow=none;endArrow=none;exitX=0.5;exitY=-0.004;exitPerimeter=0;entryX=0.5;entryY=1.009;entryPerimeter=0;" edge="1" parent="1" source="HR6rN7ZnXw0lVorr0S0M-48" target="HR6rN7ZnXw0lVorr0S0M-44">
            <mxGeometry width="100" height="100" relative="1" as="geometry">
              <Array as="points" />
            </mxGeometry>
          </mxCell>
        </UserObject>
        <mxCell id="HR6rN7ZnXw0lVorr0S0M-53" value="Menu.cpp" style="html=1;overflow=block;blockSpacing=1;swimlane;childLayout=stackLayout;horizontal=1;horizontalStack=0;resizeParent=1;resizeParentMax=0;resizeLast=0;collapsible=0;fontStyle=0;marginBottom=0;swimlaneFillColor=#ffffff;startSize=25;whiteSpace=wrap;fontSize=16.7;fontColor=#333333;align=left;spacing=0;strokeColor=#5e5e5e;strokeOpacity=100;rounded=1;absoluteArcSize=1;arcSize=9;strokeWidth=2.3;" vertex="1" parent="1">
          <mxGeometry x="-1275" y="-90" width="330" height="148.25" as="geometry" />
        </mxCell>
        <mxCell id="HR6rN7ZnXw0lVorr0S0M-54" value="" style="part=1;html=1;resizeHeight=0;strokeColor=none;fillColor=none;align=left;verticalAlign=middle;spacingLeft=4;spacingRight=4;overflow=hidden;rotatable=0;points=[[0,0.5],[1,0.5]];portConstraint=eastwest;swimlaneFillColor=#ffffff;strokeOpacity=100;whiteSpace=wrap;fontSize=13;" vertex="1" parent="HR6rN7ZnXw0lVorr0S0M-53">
          <mxGeometry y="25" width="330" height="52" as="geometry" />
        </mxCell>
        <mxCell id="HR6rN7ZnXw0lVorr0S0M-55" value="" style="line;strokeWidth=1;fillColor=none;align=left;verticalAlign=middle;spacingTop=-1;spacingLeft=3;spacingRight=3;rotatable=0;labelPosition=right;points=[];portConstraint=eastwest;" vertex="1" parent="HR6rN7ZnXw0lVorr0S0M-53">
          <mxGeometry y="77" width="330" height="8" as="geometry" />
        </mxCell>
        <mxCell id="HR6rN7ZnXw0lVorr0S0M-56" value="&#xa;1 newGame()&#xa;2 loadGame()&#xa;3 credits()&#xa;4 quitGame()" style="part=1;html=1;resizeHeight=0;strokeColor=none;fillColor=none;align=left;verticalAlign=middle;spacingLeft=4;spacingRight=4;overflow=hidden;rotatable=0;points=[[0,0.5],[1,0.5]];portConstraint=eastwest;swimlaneFillColor=#ffffff;strokeOpacity=100;whiteSpace=wrap;fontSize=16.7;fontColor=#333333;" vertex="1" parent="HR6rN7ZnXw0lVorr0S0M-53">
          <mxGeometry y="85" width="330" height="63.25" as="geometry" />
        </mxCell>
        <UserObject label="" lucidchartObjectId="YHVVtGWetKqs" id="HR6rN7ZnXw0lVorr0S0M-57">
          <mxCell style="html=1;jettySize=18;whiteSpace=wrap;fontSize=13;strokeColor=#5E5E5E;strokeWidth=1.5;rounded=1;arcSize=12;edgeStyle=orthogonalEdgeStyle;startArrow=none;endArrow=block;endFill=1;exitX=1.003;exitY=0.5;exitPerimeter=0;entryX=-0.003;entryY=0.426;entryPerimeter=0;" edge="1" parent="1" source="HR6rN7ZnXw0lVorr0S0M-53" target="HR6rN7ZnXw0lVorr0S0M-36">
            <mxGeometry width="100" height="100" relative="1" as="geometry">
              <Array as="points" />
            </mxGeometry>
          </mxCell>
        </UserObject>
        <UserObject label="" lucidchartObjectId="6HVVYqtyAbkt" id="HR6rN7ZnXw0lVorr0S0M-58">
          <mxCell style="html=1;jettySize=18;whiteSpace=wrap;fontSize=13;strokeColor=#5E5E5E;strokeWidth=1.5;rounded=1;arcSize=12;edgeStyle=orthogonalEdgeStyle;startArrow=block;startFill=1;endArrow=none;exitX=-0.003;exitY=0.5;exitPerimeter=0;entryX=1.003;entryY=0.72;entryPerimeter=0;" edge="1" parent="1" source="HR6rN7ZnXw0lVorr0S0M-40" target="HR6rN7ZnXw0lVorr0S0M-53">
            <mxGeometry width="100" height="100" relative="1" as="geometry">
              <Array as="points" />
            </mxGeometry>
          </mxCell>
        </UserObject>
        <UserObject label="" lucidchartObjectId=".HVVUJ5t8Hc7" id="HR6rN7ZnXw0lVorr0S0M-59">
          <mxCell style="html=1;jettySize=18;whiteSpace=wrap;fontSize=13;strokeColor=#5E5E5E;strokeWidth=1.5;rounded=1;arcSize=12;edgeStyle=orthogonalEdgeStyle;startArrow=none;endArrow=block;endFill=1;exitX=1.003;exitY=0.907;exitPerimeter=0;entryX=-0.003;entryY=0.539;entryPerimeter=0;" edge="1" parent="1" source="HR6rN7ZnXw0lVorr0S0M-53" target="HR6rN7ZnXw0lVorr0S0M-44">
            <mxGeometry width="100" height="100" relative="1" as="geometry">
              <Array as="points" />
            </mxGeometry>
          </mxCell>
        </UserObject>
        <UserObject label="" lucidchartObjectId="sIVVNWhUznuW" id="HR6rN7ZnXw0lVorr0S0M-60">
          <mxCell style="html=1;jettySize=18;whiteSpace=wrap;fontSize=13;strokeColor=#5E5E5E;strokeWidth=1.5;rounded=1;arcSize=12;edgeStyle=orthogonalEdgeStyle;startArrow=none;endArrow=none;exitX=0.5;exitY=1.009;exitPerimeter=0;entryX=0.455;entryY=-0.005;entryPerimeter=0;" edge="1" parent="1" source="HR6rN7ZnXw0lVorr0S0M-13" target="HR6rN7ZnXw0lVorr0S0M-53">
            <mxGeometry width="100" height="100" relative="1" as="geometry">
              <Array as="points" />
            </mxGeometry>
          </mxCell>
        </UserObject>
        <mxCell id="HR6rN7ZnXw0lVorr0S0M-61" value="GameEngine.cpp" style="html=1;overflow=block;blockSpacing=1;swimlane;childLayout=stackLayout;horizontal=1;horizontalStack=0;resizeParent=1;resizeParentMax=0;resizeLast=0;collapsible=0;fontStyle=0;marginBottom=0;swimlaneFillColor=#ffffff;startSize=25;whiteSpace=wrap;fontSize=16.7;fontColor=#333333;align=left;spacing=0;strokeColor=#5e5e5e;strokeOpacity=100;rounded=1;absoluteArcSize=1;arcSize=9;strokeWidth=2.3;" vertex="1" parent="1">
          <mxGeometry x="-165" y="-390" width="330" height="266.25" as="geometry" />
        </mxCell>
        <mxCell id="HR6rN7ZnXw0lVorr0S0M-62" value="PlayerAddTile() (player adds tile to board)&#xa;updateBoard()&#xa;updateScore()&#xa;updateBag()" style="part=1;html=1;resizeHeight=0;strokeColor=none;fillColor=none;align=left;verticalAlign=middle;spacingLeft=4;spacingRight=4;overflow=hidden;rotatable=0;points=[[0,0.5],[1,0.5]];portConstraint=eastwest;swimlaneFillColor=#ffffff;strokeOpacity=100;whiteSpace=wrap;fontSize=16.7;fontColor=#333333;" vertex="1" parent="HR6rN7ZnXw0lVorr0S0M-61">
          <mxGeometry y="25" width="330" height="112" as="geometry" />
        </mxCell>
        <mxCell id="HR6rN7ZnXw0lVorr0S0M-63" value="" style="line;strokeWidth=1;fillColor=none;align=left;verticalAlign=middle;spacingTop=-1;spacingLeft=3;spacingRight=3;rotatable=0;labelPosition=right;points=[];portConstraint=eastwest;" vertex="1" parent="HR6rN7ZnXw0lVorr0S0M-61">
          <mxGeometry y="137" width="330" height="8" as="geometry" />
        </mxCell>
        <mxCell id="HR6rN7ZnXw0lVorr0S0M-64" value="" style="part=1;html=1;resizeHeight=0;strokeColor=none;fillColor=none;align=left;verticalAlign=middle;spacingLeft=4;spacingRight=4;overflow=hidden;rotatable=0;points=[[0,0.5],[1,0.5]];portConstraint=eastwest;swimlaneFillColor=#ffffff;strokeOpacity=100;whiteSpace=wrap;fontSize=13;" vertex="1" parent="HR6rN7ZnXw0lVorr0S0M-61">
          <mxGeometry y="145" width="330" height="121.25" as="geometry" />
        </mxCell>
        <UserObject label="" lucidchartObjectId="xEhWXxc_-IDZ" id="HR6rN7ZnXw0lVorr0S0M-65">
          <mxCell style="html=1;jettySize=18;whiteSpace=wrap;fontSize=13;strokeColor=#5E5E5E;strokeWidth=1.5;rounded=1;arcSize=12;edgeStyle=orthogonalEdgeStyle;startArrow=none;endArrow=block;endFill=1;exitX=1.003;exitY=0.553;exitPerimeter=0;entryX=-0.003;entryY=0.553;entryPerimeter=0;" edge="1" parent="1" source="HR6rN7ZnXw0lVorr0S0M-36" target="HR6rN7ZnXw0lVorr0S0M-61">
            <mxGeometry width="100" height="100" relative="1" as="geometry">
              <Array as="points" />
            </mxGeometry>
          </mxCell>
        </UserObject>
        <UserObject label="" lucidchartObjectId="FEhWliCexH.q" id="HR6rN7ZnXw0lVorr0S0M-66">
          <mxCell style="html=1;jettySize=18;whiteSpace=wrap;fontSize=13;strokeColor=#5E5E5E;strokeWidth=1.5;rounded=1;arcSize=12;edgeStyle=orthogonalEdgeStyle;startArrow=none;endArrow=block;endFill=1;exitX=1.003;exitY=0.5;exitPerimeter=0;entryX=0.5;entryY=1.006;entryPerimeter=0;" edge="1" parent="1" source="HR6rN7ZnXw0lVorr0S0M-40" target="HR6rN7ZnXw0lVorr0S0M-61">
            <mxGeometry width="100" height="100" relative="1" as="geometry">
              <Array as="points" />
            </mxGeometry>
          </mxCell>
        </UserObject>
        <UserObject label="" lucidchartObjectId="kHhWarp5wJY4" id="HR6rN7ZnXw0lVorr0S0M-67">
          <mxCell style="html=1;jettySize=18;whiteSpace=wrap;fontSize=13;strokeColor=#5E5E5E;strokeWidth=1.5;rounded=1;arcSize=12;edgeStyle=orthogonalEdgeStyle;startArrow=none;endArrow=none;exitX=0.203;exitY=1.006;exitPerimeter=0;entryX=-0.003;entryY=0.241;entryPerimeter=0;" edge="1" parent="1" source="HR6rN7ZnXw0lVorr0S0M-61" target="HR6rN7ZnXw0lVorr0S0M-21">
            <mxGeometry width="100" height="100" relative="1" as="geometry">
              <Array as="points" />
            </mxGeometry>
          </mxCell>
        </UserObject>
        <UserObject label="" lucidchartObjectId="zHhW4ScAOhl9" id="HR6rN7ZnXw0lVorr0S0M-68">
          <mxCell style="html=1;jettySize=18;whiteSpace=wrap;fontSize=13;strokeColor=#5E5E5E;strokeWidth=1.5;rounded=1;arcSize=12;edgeStyle=orthogonalEdgeStyle;startArrow=none;endArrow=none;exitX=1.003;exitY=0.921;exitPerimeter=0;entryX=0.5;entryY=-0.007;entryPerimeter=0;" edge="1" parent="1" source="HR6rN7ZnXw0lVorr0S0M-9" target="HR6rN7ZnXw0lVorr0S0M-1">
            <mxGeometry width="100" height="100" relative="1" as="geometry">
              <Array as="points" />
            </mxGeometry>
          </mxCell>
        </UserObject>
        <mxCell id="HR6rN7ZnXw0lVorr0S0M-69" value="tileBag" style="html=1;overflow=block;blockSpacing=1;swimlane;childLayout=stackLayout;horizontal=1;horizontalStack=0;resizeParent=1;resizeParentMax=0;resizeLast=0;collapsible=0;fontStyle=0;marginBottom=0;swimlaneFillColor=#ffffff;startSize=25;whiteSpace=wrap;fontSize=16.7;fontColor=#333333;align=left;spacing=0;strokeColor=#5e5e5e;strokeOpacity=100;rounded=1;absoluteArcSize=1;arcSize=9;strokeWidth=2.3;" vertex="1" parent="1">
          <mxGeometry x="285" y="-375" width="330" height="148.25" as="geometry" />
        </mxCell>
        <mxCell id="HR6rN7ZnXw0lVorr0S0M-70" value="tileBag: LinkedList()" style="part=1;html=1;resizeHeight=0;strokeColor=none;fillColor=none;align=left;verticalAlign=middle;spacingLeft=4;spacingRight=4;overflow=hidden;rotatable=0;points=[[0,0.5],[1,0.5]];portConstraint=eastwest;swimlaneFillColor=#ffffff;strokeOpacity=100;whiteSpace=wrap;fontSize=16.7;fontColor=#333333;" vertex="1" parent="HR6rN7ZnXw0lVorr0S0M-69">
          <mxGeometry y="25" width="330" height="52" as="geometry" />
        </mxCell>
        <mxCell id="HR6rN7ZnXw0lVorr0S0M-71" value="" style="line;strokeWidth=1;fillColor=none;align=left;verticalAlign=middle;spacingTop=-1;spacingLeft=3;spacingRight=3;rotatable=0;labelPosition=right;points=[];portConstraint=eastwest;" vertex="1" parent="HR6rN7ZnXw0lVorr0S0M-69">
          <mxGeometry y="77" width="330" height="8" as="geometry" />
        </mxCell>
        <mxCell id="HR6rN7ZnXw0lVorr0S0M-72" value="" style="part=1;html=1;resizeHeight=0;strokeColor=none;fillColor=none;align=left;verticalAlign=middle;spacingLeft=4;spacingRight=4;overflow=hidden;rotatable=0;points=[[0,0.5],[1,0.5]];portConstraint=eastwest;swimlaneFillColor=#ffffff;strokeOpacity=100;whiteSpace=wrap;fontSize=13;" vertex="1" parent="HR6rN7ZnXw0lVorr0S0M-69">
          <mxGeometry y="85" width="330" height="63.25" as="geometry" />
        </mxCell>
        <UserObject label="" lucidchartObjectId="YIhWvvAue5.H" id="HR6rN7ZnXw0lVorr0S0M-73">
          <mxCell style="html=1;jettySize=18;whiteSpace=wrap;fontSize=13;strokeColor=#5E5E5E;strokeWidth=1.5;rounded=1;arcSize=12;edgeStyle=orthogonalEdgeStyle;startArrow=none;endArrow=block;endFill=1;exitX=-0.003;exitY=0.5;exitPerimeter=0;entryX=1.003;entryY=0.42;entryPerimeter=0;" edge="1" parent="1" source="HR6rN7ZnXw0lVorr0S0M-69" target="HR6rN7ZnXw0lVorr0S0M-61">
            <mxGeometry width="100" height="100" relative="1" as="geometry">
              <Array as="points" />
            </mxGeometry>
          </mxCell>
        </UserObject>
        <mxCell id="HR6rN7ZnXw0lVorr0S0M-74" value="Link test for GitHub" style="text;html=1;strokeColor=none;fillColor=none;align=center;verticalAlign=middle;whiteSpace=wrap;rounded=0;fontSize=31;fontStyle=1" vertex="1" parent="1">
          <mxGeometry x="-150" y="-630" width="350" height="100" as="geometry" />
        </mxCell>
      </root>
    </mxGraphModel>
  </diagram>
</mxfile>
